<?xml version="1.0" encoding="UTF-8" standalone="no"?>
<svg
   xmlns:dc="http://purl.org/dc/elements/1.1/"
   xmlns:cc="http://creativecommons.org/ns#"
   xmlns:rdf="http://www.w3.org/1999/02/22-rdf-syntax-ns#"
   xmlns:svg="http://www.w3.org/2000/svg"
   xmlns="http://www.w3.org/2000/svg"
   xmlns:sodipodi="http://sodipodi.sourceforge.net/DTD/sodipodi-0.dtd"
   xmlns:inkscape="http://www.inkscape.org/namespaces/inkscape"
   height="16px"
   viewBox="0 0 16 16"
   width="16px"
   version="1.1"
   id="svg18"
   sodipodi:docname="document-save-as-symbolic.svg"
   inkscape:version="1.0.2 (e86c870879, 2021-01-15)">
  <metadata
     id="metadata24">
    <rdf:RDF>
      <cc:Work
         rdf:about="">
        <dc:format>image/svg+xml</dc:format>
        <dc:type
           rdf:resource="http://purl.org/dc/dcmitype/StillImage" />
      </cc:Work>
    </rdf:RDF>
  </metadata>
  <defs
     id="defs22" />
  <sodipodi:namedview
     pagecolor="#ffffff"
     bordercolor="#666666"
     borderopacity="1"
     objecttolerance="10"
     gridtolerance="10"
     guidetolerance="10"
     inkscape:pageopacity="0"
     inkscape:pageshadow="2"
     inkscape:window-width="1920"
     inkscape:window-height="1016"
     id="namedview20"
     showgrid="false"
     inkscape:zoom="49.625"
     inkscape:cx="8"
     inkscape:cy="8"
     inkscape:window-x="0"
     inkscape:window-y="0"
     inkscape:window-maximized="1"
     inkscape:current-layer="svg18" />
  <path
     d="m 4.5 0 c -0.277344 0 -0.5 0.222656 -0.5 0.5 v 1 c 0 0.277344 0.222656 0.5 0.5 0.5 h 1 c 0.277344 0 0.5 -0.222656 0.5 -0.5 v -1 c 0 -0.277344 -0.222656 -0.5 -0.5 -0.5 z m 3 0 c -0.277344 0 -0.5 0.222656 -0.5 0.5 v 1 c 0 0.277344 0.222656 0.5 0.5 0.5 h 1 c 0.277344 0 0.5 -0.222656 0.5 -0.5 v -1 c 0 -0.277344 -0.222656 -0.5 -0.5 -0.5 z m 3 0 c -0.277344 0 -0.5 0.222656 -0.5 0.5 v 1 c 0 0.277344 0.222656 0.5 0.5 0.5 h 1 c 0.277344 0 0.5 -0.222656 0.5 -0.5 v -1 c 0 -0.277344 -0.222656 -0.5 -0.5 -0.5 z m -3.5 3 v 6.585938 l -1.292969 -1.292969 c -0.1875 -0.1875 -0.441406 -0.292969 -0.707031 -0.292969 s -0.519531 0.105469 -0.707031 0.292969 c -0.390625 0.390625 -0.390625 1.023437 0 1.414062 l 3 3 c 0.390625 0.390625 1.023437 0.390625 1.414062 0 l 3 -3 c 0.390625 -0.390625 0.390625 -1.023437 0 -1.414062 s -1.023437 -0.390625 -1.414062 0 l -1.292969 1.292969 v -6.585938 z m -6 11 v 2 h 14 v -2 z m 0 0"
     fill="#2e3436"
     id="path16"
     style="fill:#222222;fill-opacity:1" />
</svg>
